<mxfile host="app.diagrams.net" modified="2022-10-17T07:50:22.579Z" agent="5.0 (Windows NT 10.0; Win64; x64) AppleWebKit/537.36 (KHTML, like Gecko) Chrome/106.0.0.0 Safari/537.36 Edg/106.0.1370.42" etag="5iZ-vr9tJOKFqhh_8lcO" version="20.4.1" type="github">
  <diagram id="eGtA_mQg2Kvg4qejzhI2" name="第 1 页">
    <mxGraphModel dx="2842" dy="1154" grid="1" gridSize="10" guides="1" tooltips="1" connect="1" arrows="1" fold="1" page="1" pageScale="1" pageWidth="827" pageHeight="1169" math="0" shadow="0">
      <root>
        <mxCell id="0" />
        <mxCell id="1" parent="0" />
        <mxCell id="NYcVxpbIizTCKHN2jAaS-1" value="" style="html=1;outlineConnect=0;fillColor=#FFFFFF;strokeColor=#000000;gradientColor=none;gradientDirection=north;strokeWidth=2;shape=mxgraph.networks.cloud;fontColor=#ffffff;fontSize=20;" vertex="1" parent="1">
          <mxGeometry x="894" y="410" width="200" height="130" as="geometry" />
        </mxCell>
        <mxCell id="NYcVxpbIizTCKHN2jAaS-2" style="rounded=0;orthogonalLoop=1;jettySize=auto;html=1;entryX=0.5;entryY=1;entryDx=0;entryDy=0;dashed=1;fontColor=#FFFFFF;endArrow=none;endFill=0;" edge="1" parent="1" source="NYcVxpbIizTCKHN2jAaS-7" target="NYcVxpbIizTCKHN2jAaS-12">
          <mxGeometry relative="1" as="geometry" />
        </mxCell>
        <mxCell id="NYcVxpbIizTCKHN2jAaS-3" style="edgeStyle=none;rounded=0;orthogonalLoop=1;jettySize=auto;html=1;entryX=0;entryY=0.5;entryDx=0;entryDy=0;dashed=1;strokeColor=#30E636;strokeWidth=1.2;fontSize=20;fontColor=#000000;endArrow=none;endFill=0;exitX=1.016;exitY=0.117;exitDx=0;exitDy=0;exitPerimeter=0;" edge="1" parent="1" source="NYcVxpbIizTCKHN2jAaS-7" target="NYcVxpbIizTCKHN2jAaS-23">
          <mxGeometry relative="1" as="geometry" />
        </mxCell>
        <mxCell id="NYcVxpbIizTCKHN2jAaS-4" style="edgeStyle=orthogonalEdgeStyle;rounded=0;orthogonalLoop=1;jettySize=auto;html=1;entryX=0;entryY=0.5;entryDx=0;entryDy=0;dashed=1;strokeColor=#FF3333;strokeWidth=1.2;fontSize=20;fontColor=#000000;endArrow=none;endFill=0;" edge="1" parent="1" source="NYcVxpbIizTCKHN2jAaS-7" target="NYcVxpbIizTCKHN2jAaS-25">
          <mxGeometry relative="1" as="geometry">
            <Array as="points">
              <mxPoint x="310" y="490" />
              <mxPoint x="310" y="490" />
            </Array>
          </mxGeometry>
        </mxCell>
        <mxCell id="NYcVxpbIizTCKHN2jAaS-5" style="edgeStyle=orthogonalEdgeStyle;rounded=0;orthogonalLoop=1;jettySize=auto;html=1;entryX=0;entryY=0.5;entryDx=0;entryDy=0;dashed=1;strokeColor=#1BA1E2;strokeWidth=1.2;fontSize=20;fontColor=#000000;endArrow=none;endFill=0;" edge="1" parent="1" source="NYcVxpbIizTCKHN2jAaS-7" target="NYcVxpbIizTCKHN2jAaS-28">
          <mxGeometry relative="1" as="geometry">
            <Array as="points">
              <mxPoint x="340" y="540" />
              <mxPoint x="340" y="540" />
            </Array>
          </mxGeometry>
        </mxCell>
        <mxCell id="NYcVxpbIizTCKHN2jAaS-6" style="edgeStyle=orthogonalEdgeStyle;rounded=0;orthogonalLoop=1;jettySize=auto;html=1;entryX=0.009;entryY=0.427;entryDx=0;entryDy=0;entryPerimeter=0;strokeColor=#CC99FF;strokeWidth=1.2;fontSize=12;fontColor=#FFFFFF;endArrow=classic;endFill=1;" edge="1" parent="1" source="NYcVxpbIizTCKHN2jAaS-7" target="NYcVxpbIizTCKHN2jAaS-38">
          <mxGeometry relative="1" as="geometry">
            <Array as="points">
              <mxPoint x="380" y="640" />
              <mxPoint x="380" y="346" />
            </Array>
          </mxGeometry>
        </mxCell>
        <mxCell id="NYcVxpbIizTCKHN2jAaS-7" value="" style="rounded=1;whiteSpace=wrap;html=1;strokeWidth=1.2;" vertex="1" parent="1">
          <mxGeometry x="110" y="410" width="170" height="280" as="geometry" />
        </mxCell>
        <mxCell id="NYcVxpbIizTCKHN2jAaS-8" value="&lt;font color=&quot;#ffffff&quot;&gt;App Category(Others)&lt;/font&gt;" style="rounded=0;whiteSpace=wrap;html=1;strokeColor=#ADADAD;fillColor=#30E636;" vertex="1" parent="1">
          <mxGeometry x="125" y="420" width="140" height="40" as="geometry" />
        </mxCell>
        <mxCell id="NYcVxpbIizTCKHN2jAaS-9" style="edgeStyle=none;rounded=0;orthogonalLoop=1;jettySize=auto;html=1;entryX=0.5;entryY=1;entryDx=0;entryDy=0;dashed=1;fontColor=#FFFFFF;endArrow=none;endFill=0;exitX=0.997;exitY=0.064;exitDx=0;exitDy=0;exitPerimeter=0;" edge="1" parent="1" source="NYcVxpbIizTCKHN2jAaS-7" target="NYcVxpbIizTCKHN2jAaS-13">
          <mxGeometry relative="1" as="geometry" />
        </mxCell>
        <mxCell id="NYcVxpbIizTCKHN2jAaS-10" value="&lt;font color=&quot;#ffffff&quot;&gt;App Category(Others)&lt;/font&gt;" style="rounded=0;whiteSpace=wrap;html=1;strokeColor=#ADADAD;fillColor=#FF3333;" vertex="1" parent="1">
          <mxGeometry x="125" y="470" width="140" height="40" as="geometry" />
        </mxCell>
        <mxCell id="NYcVxpbIizTCKHN2jAaS-11" value="&lt;font color=&quot;#ffffff&quot;&gt;App Category(Others)&lt;/font&gt;" style="rounded=0;whiteSpace=wrap;html=1;strokeColor=#006EAF;fillColor=#1ba1e2;fontColor=#ffffff;" vertex="1" parent="1">
          <mxGeometry x="125" y="520" width="140" height="40" as="geometry" />
        </mxCell>
        <mxCell id="NYcVxpbIizTCKHN2jAaS-12" value="UDR" style="rounded=0;whiteSpace=wrap;html=1;strokeColor=#666666;fontColor=#333333;fillColor=#f5f5f5;" vertex="1" parent="1">
          <mxGeometry x="310" y="230" width="120" height="60" as="geometry" />
        </mxCell>
        <mxCell id="NYcVxpbIizTCKHN2jAaS-13" value="PCF" style="rounded=0;whiteSpace=wrap;html=1;strokeColor=#666666;fontColor=#333333;fillColor=#f5f5f5;" vertex="1" parent="1">
          <mxGeometry x="450" y="230" width="120" height="60" as="geometry" />
        </mxCell>
        <mxCell id="NYcVxpbIizTCKHN2jAaS-14" value="" style="rounded=0;whiteSpace=wrap;html=1;" vertex="1" parent="1">
          <mxGeometry x="110" y="573" width="170" height="60" as="geometry" />
        </mxCell>
        <mxCell id="NYcVxpbIizTCKHN2jAaS-15" value="" style="ellipse;whiteSpace=wrap;html=1;aspect=fixed;" vertex="1" parent="1">
          <mxGeometry x="182.5" y="650" width="25" height="25" as="geometry" />
        </mxCell>
        <mxCell id="NYcVxpbIizTCKHN2jAaS-16" value="OS" style="rounded=0;whiteSpace=wrap;html=1;" vertex="1" parent="1">
          <mxGeometry x="110" y="573" width="120" height="30" as="geometry" />
        </mxCell>
        <mxCell id="NYcVxpbIizTCKHN2jAaS-17" value="Modem chip" style="rounded=0;whiteSpace=wrap;html=1;" vertex="1" parent="1">
          <mxGeometry x="110" y="603" width="120" height="30" as="geometry" />
        </mxCell>
        <mxCell id="NYcVxpbIizTCKHN2jAaS-18" value="URSP" style="rounded=0;whiteSpace=wrap;html=1;fillColor=#99CCFF;" vertex="1" parent="1">
          <mxGeometry x="230" y="573" width="50" height="60" as="geometry" />
        </mxCell>
        <mxCell id="NYcVxpbIizTCKHN2jAaS-19" value="&lt;font color=&quot;#000000&quot; style=&quot;font-size: 20px;&quot;&gt;&lt;b style=&quot;font-size: 20px;&quot;&gt;UE&lt;/b&gt;&lt;/font&gt;" style="text;html=1;strokeColor=none;fillColor=none;align=center;verticalAlign=middle;whiteSpace=wrap;rounded=0;fontColor=#FFFFFF;fontSize=20;" vertex="1" parent="1">
          <mxGeometry x="165" y="700" width="60" height="30" as="geometry" />
        </mxCell>
        <mxCell id="NYcVxpbIizTCKHN2jAaS-20" value="" style="endArrow=none;dashed=1;html=1;rounded=0;fontSize=20;fontColor=#000000;" edge="1" parent="1">
          <mxGeometry width="50" height="50" relative="1" as="geometry">
            <mxPoint x="-50" y="410" as="sourcePoint" />
            <mxPoint x="125" y="410" as="targetPoint" />
            <Array as="points">
              <mxPoint x="60" y="410" />
            </Array>
          </mxGeometry>
        </mxCell>
        <mxCell id="NYcVxpbIizTCKHN2jAaS-21" value="" style="endArrow=none;dashed=1;html=1;rounded=0;fontSize=20;fontColor=#000000;" edge="1" parent="1">
          <mxGeometry width="50" height="50" relative="1" as="geometry">
            <mxPoint x="-60" y="675" as="sourcePoint" />
            <mxPoint x="115" y="675" as="targetPoint" />
            <Array as="points">
              <mxPoint x="50" y="675" />
            </Array>
          </mxGeometry>
        </mxCell>
        <mxCell id="NYcVxpbIizTCKHN2jAaS-22" style="edgeStyle=orthogonalEdgeStyle;rounded=0;orthogonalLoop=1;jettySize=auto;html=1;dashed=1;strokeColor=#30E636;strokeWidth=1.2;fontSize=20;fontColor=#000000;endArrow=oval;endFill=1;" edge="1" parent="1" source="NYcVxpbIizTCKHN2jAaS-23">
          <mxGeometry relative="1" as="geometry">
            <mxPoint x="954" y="460" as="targetPoint" />
            <Array as="points">
              <mxPoint x="874" y="440" />
              <mxPoint x="874" y="460" />
            </Array>
          </mxGeometry>
        </mxCell>
        <mxCell id="NYcVxpbIizTCKHN2jAaS-23" value="&lt;font&gt;Default(Inter)&lt;/font&gt;" style="rounded=0;whiteSpace=wrap;html=1;strokeColor=#30E636;fillColor=#FFFFFF;fontColor=#000000;" vertex="1" parent="1">
          <mxGeometry x="634" y="420" width="140" height="40" as="geometry" />
        </mxCell>
        <mxCell id="NYcVxpbIizTCKHN2jAaS-24" style="edgeStyle=orthogonalEdgeStyle;rounded=0;orthogonalLoop=1;jettySize=auto;html=1;dashed=1;strokeColor=#FF3333;strokeWidth=1.2;fontSize=20;fontColor=#000000;endArrow=oval;endFill=1;" edge="1" parent="1" source="NYcVxpbIizTCKHN2jAaS-25">
          <mxGeometry relative="1" as="geometry">
            <mxPoint x="954" y="490" as="targetPoint" />
          </mxGeometry>
        </mxCell>
        <mxCell id="NYcVxpbIizTCKHN2jAaS-25" value="&lt;font&gt;App Category(Others)&lt;/font&gt;" style="rounded=0;whiteSpace=wrap;html=1;strokeColor=#FF3333;fillColor=#FFFFFF;fontColor=#000000;" vertex="1" parent="1">
          <mxGeometry x="634" y="470" width="140" height="40" as="geometry" />
        </mxCell>
        <mxCell id="NYcVxpbIizTCKHN2jAaS-26" style="edgeStyle=none;rounded=0;orthogonalLoop=1;jettySize=auto;html=1;exitX=0.5;exitY=1;exitDx=0;exitDy=0;dashed=1;strokeColor=#1BA1E2;strokeWidth=1.2;fontSize=20;fontColor=#000000;endArrow=none;endFill=0;" edge="1" parent="1" source="NYcVxpbIizTCKHN2jAaS-25" target="NYcVxpbIizTCKHN2jAaS-25">
          <mxGeometry relative="1" as="geometry" />
        </mxCell>
        <mxCell id="NYcVxpbIizTCKHN2jAaS-27" style="edgeStyle=orthogonalEdgeStyle;rounded=0;orthogonalLoop=1;jettySize=auto;html=1;dashed=1;strokeColor=#1BA1E2;strokeWidth=1.2;fontSize=20;fontColor=#000000;endArrow=oval;endFill=1;" edge="1" parent="1" source="NYcVxpbIizTCKHN2jAaS-28">
          <mxGeometry relative="1" as="geometry">
            <mxPoint x="954" y="520" as="targetPoint" />
            <Array as="points">
              <mxPoint x="874" y="540" />
              <mxPoint x="874" y="520" />
            </Array>
          </mxGeometry>
        </mxCell>
        <mxCell id="NYcVxpbIizTCKHN2jAaS-28" value="&lt;font&gt;App Category(Others)&lt;/font&gt;" style="rounded=0;whiteSpace=wrap;html=1;strokeColor=#006EAF;fillColor=#FFFFFF;fontColor=#000000;" vertex="1" parent="1">
          <mxGeometry x="634" y="520" width="140" height="40" as="geometry" />
        </mxCell>
        <mxCell id="NYcVxpbIizTCKHN2jAaS-29" value="" style="rounded=0;whiteSpace=wrap;html=1;strokeColor=#000000;strokeWidth=0;fontSize=12;fontColor=#FFFFFF;fillColor=#FFFFFF;" vertex="1" parent="1">
          <mxGeometry x="-10" y="720" width="120" height="160" as="geometry" />
        </mxCell>
        <mxCell id="NYcVxpbIizTCKHN2jAaS-30" value="&lt;font style=&quot;font-size: 12px;&quot;&gt;URSP Rule1&lt;/font&gt;" style="rounded=0;whiteSpace=wrap;html=1;strokeColor=#000000;strokeWidth=0;fontSize=12;fontColor=#FFFFFF;fillColor=#3399FF;" vertex="1" parent="1">
          <mxGeometry x="-10" y="720" width="120" height="40" as="geometry" />
        </mxCell>
        <mxCell id="NYcVxpbIizTCKHN2jAaS-31" style="rounded=0;orthogonalLoop=1;jettySize=auto;html=1;entryX=0;entryY=0;entryDx=0;entryDy=0;dashed=1;strokeColor=#000000;strokeWidth=1;fontSize=12;fontColor=#FFFFFF;endArrow=none;endFill=0;exitX=1;exitY=0;exitDx=0;exitDy=0;" edge="1" parent="1" source="NYcVxpbIizTCKHN2jAaS-32" target="NYcVxpbIizTCKHN2jAaS-19">
          <mxGeometry relative="1" as="geometry" />
        </mxCell>
        <mxCell id="NYcVxpbIizTCKHN2jAaS-32" value="&lt;font style=&quot;font-size: 12px;&quot;&gt;1&lt;/font&gt;" style="rounded=0;whiteSpace=wrap;html=1;strokeColor=#000000;strokeWidth=0;fontSize=12;fontColor=#FFFFFF;fillColor=#66B2FF;" vertex="1" parent="1">
          <mxGeometry x="-10" y="760" width="120" height="40" as="geometry" />
        </mxCell>
        <mxCell id="NYcVxpbIizTCKHN2jAaS-33" value="appId=Enterprise" style="rounded=0;whiteSpace=wrap;html=1;strokeColor=#000000;strokeWidth=0;fontSize=12;fontColor=#FFFFFF;fillColor=#3399FF;" vertex="1" parent="1">
          <mxGeometry x="-10" y="800" width="120" height="40" as="geometry" />
        </mxCell>
        <mxCell id="NYcVxpbIizTCKHN2jAaS-34" value="S-SNSSAI#3" style="rounded=0;whiteSpace=wrap;html=1;strokeColor=#000000;strokeWidth=0;fontSize=12;fontColor=#FFFFFF;fillColor=#66B2FF;" vertex="1" parent="1">
          <mxGeometry x="-10" y="840" width="120" height="40" as="geometry" />
        </mxCell>
        <mxCell id="NYcVxpbIizTCKHN2jAaS-35" value="Example:&lt;br&gt;Communications app category binding to network slices." style="text;html=1;strokeColor=none;fillColor=none;align=left;verticalAlign=middle;whiteSpace=wrap;rounded=0;strokeWidth=0;fontSize=12;fontColor=#000000;" vertex="1" parent="1">
          <mxGeometry x="-50" y="430" width="120" height="30" as="geometry" />
        </mxCell>
        <mxCell id="NYcVxpbIizTCKHN2jAaS-36" value="URSP LAYER Bind app to slice and DNN" style="text;html=1;strokeColor=none;fillColor=none;align=left;verticalAlign=middle;whiteSpace=wrap;rounded=0;strokeWidth=0;fontSize=12;fontColor=#000000;" vertex="1" parent="1">
          <mxGeometry x="-20" y="633" width="100" height="30" as="geometry" />
        </mxCell>
        <mxCell id="NYcVxpbIizTCKHN2jAaS-37" style="edgeStyle=orthogonalEdgeStyle;rounded=0;orthogonalLoop=1;jettySize=auto;html=1;entryX=0;entryY=0.5;entryDx=0;entryDy=0;strokeColor=#CC99FF;strokeWidth=1.2;fontSize=12;fontColor=#FFFFFF;endArrow=classic;endFill=1;" edge="1" parent="1" source="NYcVxpbIizTCKHN2jAaS-38" target="NYcVxpbIizTCKHN2jAaS-39">
          <mxGeometry relative="1" as="geometry" />
        </mxCell>
        <mxCell id="NYcVxpbIizTCKHN2jAaS-38" value="&lt;b&gt;&lt;font color=&quot;#ffffff&quot;&gt;AMF&lt;/font&gt;&lt;/b&gt;" style="rounded=0;whiteSpace=wrap;html=1;strokeColor=#000000;strokeWidth=0;fontSize=12;fontColor=#000000;fillColor=#1BA1E2;" vertex="1" parent="1">
          <mxGeometry x="570" y="320" width="120" height="60" as="geometry" />
        </mxCell>
        <mxCell id="NYcVxpbIizTCKHN2jAaS-39" value="&lt;b&gt;&lt;font color=&quot;#ffffff&quot;&gt;NSACF&lt;/font&gt;&lt;/b&gt;" style="rounded=0;whiteSpace=wrap;html=1;strokeColor=#000000;strokeWidth=0;fontSize=12;fontColor=#000000;fillColor=#1BA1E2;" vertex="1" parent="1">
          <mxGeometry x="730" y="320" width="120" height="60" as="geometry" />
        </mxCell>
        <mxCell id="NYcVxpbIizTCKHN2jAaS-40" value="&lt;font color=&quot;#cc99ff&quot;&gt;UE do registration with requested slice list #1,#2,#3.&lt;/font&gt;" style="text;html=1;strokeColor=none;fillColor=none;align=center;verticalAlign=middle;whiteSpace=wrap;rounded=0;strokeWidth=1.2;fontSize=12;fontColor=#FFFFFF;" vertex="1" parent="1">
          <mxGeometry x="290" y="660" width="130" height="30" as="geometry" />
        </mxCell>
        <mxCell id="NYcVxpbIizTCKHN2jAaS-41" value="" style="fontColor=#0066CC;verticalAlign=top;verticalLabelPosition=bottom;labelPosition=center;align=center;html=1;outlineConnect=0;fillColor=#CCCCCC;strokeColor=#6881B3;gradientColor=none;gradientDirection=north;strokeWidth=2;shape=mxgraph.networks.radio_tower;fontSize=12;" vertex="1" parent="1">
          <mxGeometry x="400" y="360" width="40" height="80" as="geometry" />
        </mxCell>
        <mxCell id="NYcVxpbIizTCKHN2jAaS-42" value="AMF&amp;nbsp;" style="rounded=0;whiteSpace=wrap;html=1;strokeColor=#FF3333;strokeWidth=0;fontSize=12;fontColor=#FFFFFF;fillColor=#3399FF;align=left;" vertex="1" parent="1">
          <mxGeometry x="610" y="585" width="406" height="130" as="geometry" />
        </mxCell>
      </root>
    </mxGraphModel>
  </diagram>
</mxfile>
